<?xml version="1.0" encoding="UTF-8"?>
<svg width="24px" height="24px" viewBox="0 0 24 24" version="1.1" xmlns="http://www.w3.org/2000/svg" xmlns:xlink="http://www.w3.org/1999/xlink">
    <title>tofu_白色</title>
    <g id="tofu_白色" stroke="none" stroke-width="1" fill="none" fill-rule="evenodd">
        <path d="M15.2931953,3 C17.022673,3.00738632 18.6007274,3.441394 20.0273586,4.30202303 C21.3935513,5.12619191 22.4687696,7.74371438 23.1382469,10.1538313 L23.2970969,10.7508817 C23.3221409,10.849284 23.346464,10.9470367 23.3700577,11.0439952 L23.5028016,11.615057 L23.5028016,11.615057 L23.6254272,12.1992577 L23.7269065,12.7448448 L23.769562,13.0004682 L23.769562,13.0004682 L23.838396,13.4719946 C23.848017,13.5458104 23.8567055,13.6171205 23.8644511,13.6857457 C24.0271098,15.1268755 24.0433756,16.3872019 23.9132487,17.4667247 L23.8644511,17.8198692 L17.9707893,20.6909408 L16.5449135,18.6451602 C17.2435146,18.4699632 17.839504,18.2496893 18.2912941,17.9922774 C18.5312251,17.8555744 18.6149079,17.5502521 18.4782049,17.3103211 C18.3415018,17.0703901 18.0361796,16.9867074 17.7962486,17.1234104 C16.7580256,17.7149482 14.6569084,18.108858 12.320659,18.108858 C9.91403044,18.108858 7.76021001,17.6901964 6.76265807,17.0745731 C6.52766282,16.9295495 6.21959667,17.0024859 6.07457308,17.2374812 C5.92954949,17.4724764 6.00248593,17.7805426 6.23748118,17.9255662 C6.5871359,18.14135 7.0354979,18.3327441 7.55996018,18.4953754 L6.02921069,20.6909408 L0.135548888,17.8198692 C-0.0451829625,16.6650422 -0.0451829625,15.2870011 0.135548888,13.6857457 L0.161604002,13.4719946 L0.161604002,13.4719946 L0.230438041,13.0004682 C0.243748008,12.9173475 0.257969931,12.8320799 0.273093523,12.7448448 L0.374572803,12.1992577 L0.433273158,11.9114461 L0.433273158,11.9114461 L0.566286693,11.3111666 L0.702903101,10.7508817 L0.702903101,10.7508817 L0.855565812,10.1761412 C1.52459602,7.75988901 2.60223209,5.12873564 3.97264138,4.30202303 C5.39927259,3.441394 6.97732703,3.00738632 8.7068047,3 L9.4536737,4.30202303 C11.5505696,3.65140531 12.8449975,3.65140531 14.2832815,4.25155499 L14.5463263,4.30202303 L15.2931953,3 Z M7.15384615,10 C5.96430977,10 5,11.1192881 5,12.5 C5,13.8807119 5.96430977,15 7.15384615,15 C8.34338254,15 9.30769231,13.8807119 9.30769231,12.5 C9.30769231,11.1192881 8.34338254,10 7.15384615,10 Z M16.8461538,10 C15.6566175,10 14.6923077,11.1192881 14.6923077,12.5 C14.6923077,13.8807119 15.6566175,15 16.8461538,15 C18.0356902,15 19,13.8807119 19,12.5 C19,11.1192881 18.0356902,10 16.8461538,10 Z" id="Shape" fill="#FFFFFF"></path>
    </g>
</svg>