<?xml version="1.0" encoding="UTF-8"?>
<svg width="60px" height="60px" viewBox="0 0 60 60" version="1.1" xmlns="http://www.w3.org/2000/svg" xmlns:xlink="http://www.w3.org/1999/xlink">
    <title>历程</title>
    <g id="历程" stroke="none" stroke-width="1" fill="none" fill-rule="evenodd">
        <path d="M19.4556522,0.670272649 C23.5262676,0.187683098 26.2552288,0.697327535 27.4887934,2.56139701 C28.8752308,2.2050494 29.9342428,2.03999543 30.4477391,2.1551529 C32.2742917,2.56477836 34.0160147,4.61220141 35.9835239,8.35588012 L35.9835239,8.35588012 L36.3551536,9.07771214 C36.4175582,9.20133524 36.4802022,9.3266184 36.5430951,9.45356341 L36.5430951,9.45356341 L36.9235158,10.23519 C36.9989281,10.3927934 37.044504,10.5520403 37.0639382,10.7088118 L47.0594321,7.2201438 C47.7944909,6.963612 48.5944259,7.31271198 48.9146003,8.00531569 L48.9688779,8.13914032 L49.1838644,8.751126 L51.9302379,7.3086796 C52.602628,6.95518057 53.4248282,7.16209342 53.853888,7.77144977 L53.929597,7.89038165 L55.7420178,11.0520494 C56.1540183,11.7707615 55.9053795,12.6873852 55.1866674,13.0993857 C54.5102325,13.4871509 53.6584849,13.2897131 53.2171324,12.6659484 L53.1393311,12.5440353 L52.046,10.637 L50.1888644,11.612126 L50.9694824,13.8331008 C51.2207217,14.5481579 50.8990852,15.3382858 50.2198716,15.6745845 L38.2523045,21.5882018 L37.9008644,21.757126 L39.5380734,22.1056657 L39.677949,22.1424172 C39.7314608,22.1592467 39.7834622,22.1788851 39.8338225,22.201131 L39.9090677,22.0739275 L39.9881658,21.9528517 C40.4361506,21.3338331 41.2899569,21.1454972 41.9622147,21.5404599 C42.6764885,21.9601078 42.9153301,22.879333 42.4956823,23.5936068 L42.4956823,23.5936068 L40.7807337,26.512585 L40.7016357,26.6336608 C40.2536509,27.2526794 39.3998445,27.4410153 38.7275868,27.0460526 C38.0133129,26.6264048 37.7744713,25.7071796 38.1941192,24.9929057 L38.1941192,24.9929057 L38.2488644,24.898126 L36.5038644,24.527126 L36.4794379,24.8331255 L36.4382665,25.2254883 L36.3895696,25.5888081 C36.3021176,26.1702485 36.183165,26.6315012 36.0319916,26.9766897 C35.6567763,27.8334545 35.247281,28.5797738 34.7983633,29.2136697 L38.1602744,30.3508084 C38.7648713,30.5554756 39.1737232,31.1203413 39.1792513,31.7586167 C39.1833944,32.236975 39.1775884,32.6924447 39.1611832,33.1253706 L41.3943022,32.7798294 C42.026258,32.6822804 42.6449471,32.9959425 42.9435098,33.5504154 L43.0024759,33.6728548 L44.7698425,37.8088116 C45.0953688,38.5706017 44.741707,39.4520458 43.9799169,39.777572 C43.262938,40.0839496 42.439968,39.7886936 42.0742356,39.1177881 L42.0111565,38.9876464 L40.701,35.922 L38.7645291,36.2211667 C38.5071785,37.2144857 38.1226281,37.9865157 37.5895345,38.5485809 C37.2604928,38.8955048 36.6751263,39.0904812 35.7898548,39.1456486 L35.7898548,39.1456486 L35.4648823,39.1593341 L35.1145784,39.1615276 C34.9935412,39.1603567 34.8682112,39.1572902 34.7385173,39.1523479 L34.7385173,39.1523479 L34.3362733,39.1319136 L33.9074206,39.1003432 L33.4515334,39.0577554 L32.9681859,39.0042686 L32.4569523,38.9400016 L31.6368843,38.8236474 L30.7516776,38.6837047 L30.124642,38.5775025 L29.1276776,38.399135 L28.0617426,38.1982462 L26.5307245,37.8960534 L23.9920542,37.3711029 L22.0075817,36.9464347 C20.6443514,36.649567 19.2642536,36.3375781 17.9052437,36.0191861 L17.9052437,36.0191861 L13.6747478,34.9868885 C13.5602344,34.9576558 13.4476976,34.9288888 13.3371015,34.9005708 L13.3371015,34.9005708 L12.1914229,34.6018738 C12.1748708,34.7335513 12.1404323,34.8652022 12.0867958,34.9936334 L11.9388533,35.3514138 L11.6612441,36.0440409 C11.5727488,36.2697824 11.488281,36.4903641 11.4078004,36.7057103 L11.1782795,37.3359663 L10.9724388,37.934353 C10.9400918,38.0314031 10.9087215,38.1271063 10.8783226,38.2214531 L10.707547,38.7711819 C10.6014148,39.1267156 10.5106648,39.4602437 10.4349736,39.7711589 L10.3326903,40.2204958 C10.3023336,40.3645709 10.2757011,40.5029168 10.2527525,40.6354575 L10.1949174,41.0155882 C10.1089989,41.6802879 10.1332917,42.1670843 10.2610664,42.4633426 C10.3429716,42.6532478 10.7773344,42.8610879 11.4525602,43.0690062 L11.8097284,43.1728893 L12.1094951,43.2514612 C12.2513849,43.2590679 12.3945764,43.2871253 12.5352121,43.3374573 L12.6378644,43.379126 L12.7440764,43.4041045 C12.7817188,43.412553 12.8196745,43.4209849 12.8579353,43.4293988 L13.3311956,43.5294213 L13.8306504,43.6272247 L14.3531998,43.7223131 L14.895744,43.8141903 L15.4551832,43.9023605 L16.0284175,43.9863275 L16.9073539,44.1033121 L17.7998926,44.2080494 L18.3973088,44.2702436 C19.7904973,44.4077593 21.1697686,44.490695 22.3579146,44.490695 C24.8394516,44.490695 27.0301063,44.4153395 28.9167862,44.2030437 C30.1031175,44.0695535 31.0425225,43.8892103 31.65728,43.6730958 L31.7771419,43.6288678 L31.8444556,43.6000593 C31.8761736,43.5822029 31.9086505,43.56545 31.9418414,43.5498592 L31.9426582,41.3450738 C31.9426582,40.5653777 32.5375463,39.9246252 33.2981982,39.8519404 L33.4426582,39.8450738 C34.2223543,39.8450738 34.8631069,40.4399619 34.9357916,41.2006138 L34.9426582,41.3450738 L34.9426582,43.9700589 C34.9426582,44.7171348 34.693124,45.2863865 34.2045969,45.7286151 L35.2448217,53.5460727 C35.3105911,54.0394871 35.1271931,54.5298419 34.7619595,54.8587431 L34.6470017,54.9524114 L34.3978644,55.135126 L35.052,55.905 L37.7347016,53.7097842 C38.3756449,53.1849193 39.3207192,53.2790195 39.8455841,53.9199628 C40.337645,54.5208472 40.2856936,55.3890341 39.7491565,55.9276857 L39.6354056,56.0308453 L35.8135634,59.1605305 C35.2203395,59.6463183 34.3647924,59.6026444 33.8238568,59.0816963 L33.7200354,58.9711584 L32.0330958,56.9854177 L31.9788644,56.915126 L31.4373206,57.3142878 C30.7537597,57.817293 29.800213,57.6499361 29.3228068,56.9713742 L29.2436532,56.8463538 L23.9310685,47.479884 C23.6432761,47.4840577 23.3514784,47.4869568 23.0556038,47.4886946 L22.0182585,47.4894686 L21.3322,47.4796428 C21.2172002,47.4771844 21.1019029,47.474315 20.9863546,47.471034 L20.2904238,47.4464007 C20.1740571,47.4414696 20.0575322,47.4361252 19.9408956,47.4303667 L19.2401059,47.3908404 C19.0063099,47.3760044 18.7724382,47.3595057 18.5388621,47.341338 L18.0858644,47.302126 L14.4335748,54.8386823 C14.0822965,55.5633867 13.2283337,55.8737669 12.5022238,55.5672228 L12.3677304,55.5024667 L11.0648644,54.795126 L10.656,55.3 L12.0882983,56.6163665 C12.6600457,57.1420002 12.7308262,58.0088552 12.2754576,58.6176713 L12.1773611,58.7358164 C11.6517275,59.3075639 10.7848724,59.3783443 10.1760564,58.9229757 L10.0579112,58.8248792 L7.58955951,56.5556103 C7.04300785,56.0531403 6.95092153,55.2335029 7.35219184,54.6259068 L7.43903551,54.5073716 L8.40520104,53.3142957 C7.97238865,52.9483415 7.77890909,52.3621852 7.91949931,51.8039543 L7.96213552,51.6637955 L10.1108969,45.6596084 C8.79141159,45.1155448 7.84965423,44.4474085 7.50635524,43.6514361 C6.67705111,41.7286132 7.34166572,38.5710231 9.31851111,33.8375192 L9.33386443,33.803126 L9.04335553,33.7093369 L8.60690695,33.5541903 L8.23481448,33.4041539 L8.01965283,33.3056191 L7.82881378,33.2073311 C7.76906431,33.1745196 7.71308326,33.1416143 7.6605853,33.1084802 L7.6605853,33.1084802 L7.51325535,33.0082568 C7.49034679,32.9913935 7.46823767,32.9744393 7.44689231,32.9573773 L7.44689231,32.9573773 L7.32770007,32.8535766 C7.27240122,32.8008945 7.22333428,32.7469386 7.17953622,32.6912533 L7.17953622,32.6912533 L7.09867995,32.577442 L7.06298568,32.518554 C6.53606423,31.6009276 6.53423849,29.7847948 6.87994827,27.4488901 L6.87994827,27.4488901 L6.98271593,26.7992228 L7.10191634,26.125489 L7.23674907,25.429396 C7.28420976,25.1938282 7.33414244,24.9548184 7.3864137,24.7126511 L7.3864137,24.7126511 L7.43891005,24.4815602 C7.86030629,22.7171417 8.63659559,21.5008109 9.8109529,21.197089 L9.79977168,19.7862723 C9.79855653,19.5618059 9.79753995,19.3402923 9.79672197,19.1217311 C9.79608991,18.9528477 9.82339234,18.7903786 9.87428472,18.6387008 C9.76734154,18.4410895 9.66245999,18.2456274 9.56195217,18.0532355 L9.58386443,18.095126 L8.34486443,18.630126 L8.51621865,19.4506337 C8.68481335,20.2617239 8.16396783,21.0559154 7.35287762,21.2245101 C6.5894986,21.3831875 5.84108864,20.9311497 5.61512337,20.2012085 L5.57900117,20.0611691 L4.70755678,15.8687478 C4.54887942,15.1053688 5.00091726,14.3569589 5.73085842,14.1309936 L5.87089781,14.0948714 C6.63427683,13.936194 7.38268679,14.3882319 7.60865206,15.118173 L7.64477426,15.2582124 L7.72186443,15.632126 L8.37519207,15.3496388 C7.67449717,13.2618962 7.76000884,11.6708594 8.77412866,10.5365027 L8.90837881,10.3944369 C9.15771299,10.1445596 9.60874154,9.83192278 10.2149556,9.47562695 L10.2452414,9.3781586 C12.1286094,4.16395815 15.2157456,1.17293242 19.4556522,0.670272649 Z M31.0083858,46.9391702 L30.4575378,47.0283797 L29.8720681,47.1096442 L29.2522397,47.1842299 C28.6289787,47.2543614 27.9813326,47.3103495 27.3079956,47.3542581 L31.019,53.897 L32.154,53.062 L31.3314422,46.8795029 C31.225985,46.9000118 31.1182961,46.9198843 31.0083858,46.9391702 Z M12.9826951,46.537308 L11.219,51.464 L12.418,52.116 L14.9398644,46.914126 L14.7734738,46.8890537 L14.1235891,46.7737804 C13.7335447,46.700648 13.3524977,46.6218366 12.9826951,46.537308 Z M10.678,24.213 L10.6550982,24.2594806 C10.5442449,24.4914647 10.4245578,24.8560194 10.3188792,25.3456171 C10.2967115,25.4483177 10.2750446,25.5509686 10.2538813,25.653442 L10.2538813,25.653442 L10.1329699,26.2651307 L10.0242892,26.866427 L9.92798099,27.4511981 L9.84418724,28.0133111 L9.77304979,28.5466331 L9.7147105,29.0450312 L9.66931125,29.5023724 L9.6369939,29.912524 L9.61790032,30.269353 L9.61217239,30.5667265 L9.615,30.716 L9.78093752,30.7746319 L10.2881184,30.9400924 L10.7319079,31.0760759 L11.2744855,31.2353489 L12.199638,31.495074 L13.2463948,31.7765746 L14.4013247,32.0762473 L18.6028942,33.1014657 C19.9332545,33.4130814 21.2980731,33.7216162 22.6448913,34.0149103 L22.6448913,34.0149103 L23.707412,34.2439211 L24.884165,34.4918246 L26.5847997,34.8384743 L27.6695879,35.0515095 L28.710424,35.2490842 L29.7032132,35.4303339 L30.6438606,35.5943939 L31.5282713,35.7403996 L32.3523504,35.8674864 L33.0409756,35.9652391 C33.1508558,35.9801085 33.2582608,35.9942627 33.3631461,36.0076962 L33.3631461,36.0076962 L33.9618642,36.0796042 C34.0564921,36.0901325 34.148511,36.099929 34.2378763,36.108988 L34.2378763,36.108988 L34.741868,36.1544478 C34.8990128,36.1666214 35.0451862,36.1758005 35.1800313,36.1819403 L35.1800313,36.1819403 L35.4656354,36.1905451 L35.609,36.19 L35.6845423,36.0282984 C35.9302207,35.4354333 36.1072679,34.4182243 36.1623639,33.0049609 L36.1623639,33.0049609 L36.167,32.843 L10.678,24.213 Z M29.7912603,5.0824444 C29.630713,5.04643984 29.3041177,5.08739978 28.8472767,5.19099263 L28.8472767,5.19099263 L28.4246368,5.2947909 C28.349159,5.31453564 28.2712319,5.33547503 28.1909599,5.3575673 L28.1909599,5.3575673 L27.6820235,5.5036211 L27.1218188,5.67533827 L26.5153562,5.87071322 L25.8676459,6.08774035 L25.183698,6.32441408 L24.1007908,6.71187481 L22.9645319,7.13225894 L21.7918307,7.57879761 L20.9981347,7.8876777 L19.8022734,8.36276533 L18.615062,8.84595719 L17.4534101,9.33048441 L16.7015257,9.65090177 L15.9735266,9.96689865 L15.2744232,10.2764695 L14.6092256,10.5776086 L13.9829442,10.8683105 L13.4005891,11.1465696 L12.8671706,11.4103802 L12.387699,11.6577368 L11.9671844,11.8866338 C11.5129241,12.1421323 11.1892637,12.3558476 11.0320057,12.5134482 C10.9191741,12.6265255 10.8658662,12.9947564 11.0464514,13.7645699 L11.0464514,13.7645699 L11.1011699,13.9802907 C11.2812705,14.6427624 11.6049093,15.4427295 12.0730046,16.372424 L12.0730046,16.372424 L12.1656953,16.552 L12.3983602,16.3813799 C16.2355634,13.5959693 20.1908367,11.6251208 24.2618472,10.4766235 C25.0591532,10.2516908 25.8878414,10.7156909 26.1127741,11.5129968 C26.3377069,12.3103028 25.8737068,13.138991 25.0764008,13.3639237 C20.8213464,14.5643427 16.672315,16.7641672 12.6258244,19.9750243 L12.7998644,19.837126 L12.803943,20.4480596 L12.8158644,21.771126 L31.7532077,28.1817488 C32.2770331,27.6861932 32.7962754,26.8868037 33.2839682,25.7732083 C33.3215412,25.6874144 33.3556307,25.5794971 33.3861905,25.4497206 L33.4293772,25.2386942 L33.467235,24.9950766 C33.4730986,24.9517688 33.4787387,24.9071112 33.4841546,24.8611081 L33.513954,24.568975 L33.538338,24.2447456 L33.5572719,23.8886179 L33.5753784,23.2950498 L33.5810279,22.6308237 L33.5741038,21.8966078 L33.5544893,21.0930698 L33.5220677,20.220878 L33.4767225,19.2807002 L33.4183369,18.2732045 L33.3721108,17.5644718 L33.3200027,16.8263148 L33.1980016,15.2625198 L33.052057,13.5834029 L32.8918839,11.9109505 C31.6140662,12.0161949 30.3586941,12.1826645 29.0626986,12.4236146 C28.2482284,12.5750401 27.4652152,12.037536 27.3137897,11.2230657 C27.1623643,10.4085955 27.6998683,9.62558226 28.5143386,9.47415682 L28.5143386,9.47415682 L29.2643914,9.3417096 C30.2601064,9.1752435 31.240349,9.04887502 32.2285062,8.95752528 L32.2285062,8.95752528 L32.8656953,8.904 L32.6340306,8.49803389 C32.1965712,7.74447393 31.7809925,7.10579921 31.3888146,6.58318928 C30.674888,5.63182228 30.1007339,5.15184743 29.7912603,5.0824444 Z M30.6745547,22.1141886 C31.3556081,22.5858429 31.5253596,23.5202971 31.0537053,24.2013505 C30.582051,24.8824039 29.6475968,25.0521554 28.9665434,24.5805011 C27.9126058,23.8506109 26.9806397,23.7892465 26.1827008,24.0743689 L26.0117927,24.142715 C25.3000619,24.5666617 24.3794134,24.3333666 23.9554667,23.6216358 C23.53152,22.909905 23.7648151,21.9892565 24.4765459,21.5653098 C24.6340988,21.4714625 24.8682184,21.3582959 25.1732388,21.2493049 C26.8230922,20.6597734 28.7584324,20.7872041 30.6745547,22.1141886 Z M46.634,10.545 L36.1218644,14.214126 L36.2521056,15.7578262 L36.3732098,17.3973702 L36.423191,18.1694707 L36.4660787,18.9100541 L36.4748644,19.101126 L41.09106,16.8404004 L47.699,13.574 L47.1087116,11.8973062 C47.0715139,11.852831 47.0365966,11.805811 47.0042281,11.7563295 L46.9309267,11.631659 C46.8082741,11.3983615 46.7531825,11.1474832 46.7586932,10.9014116 L46.634,10.545 Z M23.8802603,3.65605544 C23.0098813,3.46042833 21.6649916,3.42935481 19.8088421,3.64940958 C17.6578402,3.90442041 15.8980863,5.09943752 14.510451,7.33393441 L15.2373478,7.01269338 L16.414422,6.50598388 C16.547602,6.44961958 16.6814922,6.39327026 16.8160048,6.33697198 L16.8160048,6.33697198 L18.0410511,5.83263931 L18.8693951,5.50083381 L19.7021389,5.17458082 L20.9502843,4.69939889 L21.7755875,4.39460033 L22.5905385,4.10141278 L23.3909224,3.82156724 Z" id="形状结合" fill="#11CEE5" fill-rule="nonzero"></path>
    </g>
</svg>