<?xml version="1.0" encoding="UTF-8"?>
<svg width="60px" height="60px" viewBox="0 0 60 60" version="1.1" xmlns="http://www.w3.org/2000/svg" xmlns:xlink="http://www.w3.org/1999/xlink">
    <title>团队</title>
    <g id="团队" stroke="none" stroke-width="1" fill="none" fill-rule="evenodd">
        <path d="M33.2914787,0.52627068 C37.5664796,0.975129822 40.6548708,4.64569496 40.6752613,10.2756063 L40.674,10.5 L40.7967412,10.477818 C42.1927726,10.2445526 43.647232,10.6322968 44.5775956,11.4553686 L44.7011601,11.5702866 C45.7831165,12.6286139 46.4602776,14.6041518 46.278975,16.6368581 L46.243,16.95 L46.2699504,16.9495098 C48.166932,16.9051946 49.7930269,17.8569819 50.3989745,19.4376176 L50.457989,19.6033598 C50.8381315,20.7576243 50.61204,22.1021888 49.8871409,23.6816344 C49.9610296,23.740785 50.0351566,23.8019635 50.1085279,23.864208 C50.6101252,24.2897374 50.9911144,25.0381702 51.2601037,26.1359232 L51.3456305,26.5148149 C51.3591975,26.5801319 51.3724218,26.6465361 51.3853049,26.7140321 L51.4585201,27.1321448 C51.470044,27.2040258 51.4812297,27.2770076 51.4920785,27.3510948 L51.5531415,27.8089177 L51.6061915,28.293486 L51.6512995,28.8050169 L51.6885363,29.3437279 C51.6940904,29.4357902 51.6993195,29.528994 51.7042251,29.6233439 L51.7297879,30.2032328 L51.7476566,30.8108453 L51.7579021,31.446399 C51.7589783,31.5546651 51.7597399,31.6641044 51.7601882,31.7747216 L51.7591317,32.4525946 L51.750629,33.1589521 L51.7240685,34.2723728 L51.6811527,35.451107 L51.6221207,36.6958884 L51.5472117,38.0074509 L51.4230487,39.8613508 L51.3346552,41.0211199 C51.8485276,40.8074579 52.4160081,40.6201861 53.0359028,40.456907 C55.1556865,39.8985597 56.8509798,40.9364664 57.6734767,42.9388989 C58.2862277,44.4306887 58.4217715,46.4480026 58.1139478,48.4756265 C57.5655155,52.0881303 55.133957,54.6720788 52.2933639,55.4465394 C50.8328955,55.8447221 48.9529821,55.5810354 46.5833055,54.726685 C45.5082189,55.7795348 43.9555568,56.8047683 41.8340507,57.8978875 C40.9465396,58.3551831 39.3722496,58.7105735 37.4000038,58.9702614 L36.5905658,59.0690472 C36.4523503,59.0846657 36.3125372,59.0998626 36.1712122,59.1146396 L35.3058032,59.1982783 C35.1587727,59.2113834 35.0104013,59.2240723 34.8607747,59.2363468 L33.9486371,59.3050371 L33.0104817,59.363872 C32.8521826,59.3728615 32.6929705,59.3814439 32.532931,59.3896213 L31.5634509,59.4338385 C31.4004444,59.4404027 31.2367817,59.4465654 31.0725484,59.4523286 L30.0809859,59.4821266 L29.0798364,59.5024222 C28.9124075,59.5050178 28.7447502,59.5072211 28.5769502,59.509034 L27.5691223,59.5152412 L26.5619766,59.5121664 C26.3944041,59.5108854 26.2270311,59.5092212 26.0599433,59.5071759 L25.0615231,59.4903435 L24.0740545,59.4644497 C23.9106172,59.4593839 23.7478074,59.4539441 23.5857107,59.4481324 L22.6223714,59.4088119 L21.6802529,59.3606505 C21.5252297,59.3518917 21.371262,59.3427683 21.2184351,59.333282 L20.3158499,59.2720247 L19.4447548,59.202147 C19.3024246,59.1897873 19.1615777,59.1770721 19.0222996,59.1640032 L18.2061416,59.0813604 L17.431743,58.9903179 C17.3063847,58.974449 17.1829376,58.9582339 17.0614872,58.9416742 L16.3574296,58.8381974 C16.0180656,58.7844068 15.6982124,58.727549 15.4001806,58.6676736 C12.4164548,58.0682352 10.3567027,56.2038608 9.25636532,53.2329611 C5.73004078,54.0366729 3.22249081,53.2679064 2.20287204,50.6615334 C0.869375163,47.2528178 1.48256373,42.9165306 3.64680119,41.2011338 C4.88986322,40.21587 6.3327189,40.3527672 7.99361145,41.3856741 L7.99239074,41.3195237 L7.99239074,39.7502868 L8.00097431,38.7168154 L8.02889077,36.8403452 L8.06364519,35.1998863 L8.15089439,32.0292713 L8.29153894,27.9349531 L8.40146644,25.1190038 C8.46092468,23.6401985 9.23578926,22.328439 10.4115453,21.5485511 C9.71830862,20.4909293 9.39981695,19.2888567 9.48345078,17.9768466 C9.74123659,13.9328179 12.5709418,10.1722172 16.7309304,11.1363656 L16.894,11.177 L16.9152495,10.9863629 C17.1774372,8.87165115 18.0601288,7.34537763 19.6354002,6.49744389 L19.844804,6.39069815 C21.7076458,5.49234932 23.7118314,5.71393532 25.2889672,6.59356058 L25.362,6.635 L25.4135415,6.49181029 C26.6823864,3.05465533 30.0945849,0.190608754 33.2914787,0.52627068 Z M26.4816526,21.2164206 L26.35,21.255 L26.3394407,21.3326054 C26.0350936,23.3622158 25.6701703,24.5178113 24.9783793,25.1343098 L24.8772996,25.2187499 C23.9966564,25.9075573 22.6990831,25.4254995 22.4817709,24.3287938 C22.4256703,24.0456716 22.3687412,23.7836374 22.311416,23.5432461 L22.1963651,23.0914853 C22.1002626,22.7393397 22.0038596,22.4483413 21.9091569,22.2210596 L21.879,22.152 L20.9971115,22.2918909 L19.2579416,22.5928952 L16.1695337,23.1567467 L12.616,23.826 L12.4828598,23.8582807 C11.910844,24.0226025 11.4891845,24.5117422 11.4109025,25.1021676 L11.3990207,25.2401158 L11.2738637,28.4753631 L11.1539313,32.0099698 L11.0667728,35.162087 L11.0189986,37.4942341 L10.996947,39.1657035 L10.9897917,40.3053369 L10.9947658,41.9025946 L11.0029072,42.5088221 L11.0218393,43.3342043 L11.0389268,43.8282995 L11.0595765,44.2773175 L11.0837789,44.68113 L11.1115246,45.039609 L11.1428044,45.3526261 L11.1776089,45.6200533 L11.2159288,45.8417623 C11.3796257,46.6538551 10.8539969,47.444889 10.041904,47.6085859 C9.22981113,47.7722828 8.43877723,47.2466541 8.27508033,46.4345612 L8.23629758,46.220288 C8.23007222,46.1821118 8.22396601,46.1427024 8.21797882,46.1020585 L8.18348312,45.8433672 L8.1518387,45.5549712 L8.13001981,45.312565 C8.12936351,45.3119437 8.12870733,45.3113226 8.12805126,45.3107017 L7.77618928,44.9854957 L7.44892222,44.6979889 C7.39643467,44.6531211 7.34497745,44.6097555 7.29455333,44.5678576 L7.00442793,44.3338093 L6.73922983,44.1333397 L6.49909198,43.9648009 C6.42323751,43.9137599 6.35158191,43.867766 6.28414734,43.8265446 L6.09452885,43.7169227 L5.93036946,43.634287 C5.7032912,43.5297492 5.56258613,43.5107277 5.51027348,43.5521912 C4.51505747,44.3410096 4.09997382,47.2763578 4.99669725,49.5685829 C5.35910025,50.4949658 6.39785705,50.8268075 8.5336801,50.3264718 C8.51989231,50.2236098 8.50551888,50.1200289 8.49193217,50.0155927 C8.38505794,49.1940883 8.96438011,48.4414888 9.78588446,48.3346146 C10.6073888,48.2277403 11.3599884,48.8070625 11.4668626,49.6285669 C11.9445735,53.3005614 13.4253034,55.2109716 15.9910816,55.7264433 C16.4398681,55.8166057 16.9494355,55.8991593 17.5089884,55.9740003 L18.203754,56.0601008 C18.3233168,56.0738317 18.4447063,56.0872524 18.5678362,56.1003621 L19.3268082,56.1752817 L20.1234029,56.2426976 L20.9534746,56.3025698 L21.812878,56.3548584 C21.9583259,56.3629391 22.1048232,56.370702 22.2522836,56.3781465 L23.1479119,56.4189852 L24.0625082,56.4521407 L24.9919273,56.4775731 L25.9320236,56.4952427 L26.8786518,56.5051094 L27.8276664,56.5071335 L28.774922,56.5012751 L29.7162732,56.4874943 L30.6475745,56.4657512 L31.5646806,56.436006 L32.4634459,56.3982189 L33.3397251,56.3523498 L34.1893728,56.2983591 L35.0082435,56.2362067 C35.1419269,56.2251656 35.2741552,56.2137828 35.4048421,56.2020575 L36.1697746,56.127588 C36.2939502,56.1144891 36.4164115,56.1010459 36.5370723,56.0872577 L37.2387395,56.0003814 C38.7092103,55.8031492 39.8461971,55.5473228 40.4599603,55.2310775 L41.0966007,54.8955129 C43.9511478,53.3545461 45.1911597,52.1576707 45.4736402,51.0559138 C45.6793865,50.2534426 46.4967083,49.7697016 47.2991794,49.9754479 C48.1016506,50.1811942 48.5853917,50.998516 48.3796453,51.8009871 C48.3508281,51.9133829 48.3183871,52.0247574 48.2822427,52.1351941 C49.7627157,52.6063985 50.8516889,52.7300975 51.5042456,52.5521841 C53.2292361,52.0818819 54.7827106,50.4310485 55.1479331,48.025341 C55.3804077,46.494039 55.2806417,45.0092107 54.8984509,44.0787376 C54.6096922,43.3757319 54.3458407,43.2141946 53.8000346,43.3579589 C52.33867,43.7428797 51.4393252,44.2345747 51.0561685,44.7410028 L51.01499,44.7994697 L50.9947322,45.0326309 C50.9777166,45.2179928 50.9604319,45.4046684 50.9428799,45.5926622 C50.8658686,46.4175021 50.1347738,47.0237369 49.309934,46.9467256 C48.4850941,46.8697144 47.8788593,46.1386196 47.9558706,45.3137797 L48.0940814,43.7856459 L48.2182959,42.314419 L48.362635,40.4428144 L48.455298,39.1077663 L48.5586012,37.4209028 L48.6212619,36.2267877 L48.6715387,35.0945278 L48.6983172,34.3744832 L48.7360788,33.0190667 L48.7472307,32.3842125 L48.7545343,31.4862261 L48.7532436,30.9241426 L48.7471234,30.3916203 L48.7290723,29.6488297 L48.7112473,29.1913421 L48.6760341,28.5623164 L48.6470312,28.1814806 L48.6137046,27.8317583 L48.5761388,27.5134082 L48.5344179,27.2266891 C48.5271228,27.1815528 48.5196582,27.1377453 48.5120257,27.095272 L48.4642304,26.8564845 L48.4124908,26.6499748 C48.4035436,26.6182607 48.3944355,26.5879023 48.3851683,26.558905 L48.3276706,26.4012972 C48.2781884,26.28364 48.2248173,26.2002794 48.1677766,26.1518891 C47.3441731,25.4531861 46.3799717,24.9356078 45.2636316,24.5995586 L45.127,24.561 L44.472391,26.811704 C44.1258906,28.001244 42.5867015,28.2666688 41.8517298,27.3183666 L41.770608,27.2035443 L38.906,22.751 L37.188593,23.5549037 C36.8229161,23.7259347 36.4058629,23.741512 36.0312767,23.6024898 L35.8929808,23.5431113 C31.5541947,21.4167208 28.3977406,20.6996801 26.4816526,21.2164206 Z M39.1047579,48.5093509 C39.7601934,49.0160024 39.8808067,49.9580601 39.3741552,50.6134957 C38.8675038,51.2689312 37.9254461,51.3895445 37.2700105,50.882893 C30.8344485,45.9082055 24.4948924,45.1559454 18.9600651,46.8125788 C18.4200065,46.9742241 17.9448582,47.1461362 17.5407396,47.3159935 L17.2582497,47.4395573 L17.1043834,47.5137457 C16.3714403,47.8998622 15.4642633,47.6187038 15.0781467,46.8857608 C14.6920302,46.1528177 14.9731886,45.2456407 15.7061316,44.8595241 L15.9681496,44.7290741 C16.0165512,44.7061653 16.0673021,44.6827129 16.1203771,44.6587767 L16.4665155,44.5098326 C16.5287864,44.4842005 16.5933312,44.4582043 16.6601247,44.4319037 L17.087669,44.2709278 C17.2390446,44.2163711 17.3992139,44.1610759 17.5679759,44.1055209 L18.099839,43.9385553 C24.5013447,42.0225158 31.8394422,42.893264 39.1047579,48.5093509 Z M25.6724851,26.9694599 L25.7205869,27.2977642 L25.8024963,27.9289863 C26.0828466,30.3165046 25.9134577,31.9428755 25.0424205,32.8867758 C25.4906728,33.4561398 25.4685806,34.2826251 24.9590566,34.8298238 L24.669797,35.1488904 C23.461397,36.5232037 23.5031781,37.0877442 24.4331844,37.6644745 C25.137224,38.1010748 25.3540264,39.025746 24.9174262,39.7297856 C24.4820489,40.4318531 23.561331,40.6494092 22.8580365,40.2176809 C21.0411118,42.0941308 17.6895729,42.4476978 15.5240366,40.737804 C13.9871743,39.5243071 13.4405341,37.3486274 13.6843521,34.2377826 L12.8231234,34.2401765 C11.9946963,34.2401765 11.3231234,33.5686037 11.3231234,32.7401765 C11.3231234,31.9117494 11.9946963,31.2401765 12.8231234,31.2401765 L14.0174785,31.2370663 L15.1461788,31.2280138 L16.5455922,31.2074224 L17.5134693,31.1861289 L19.2306812,31.1303089 L20.429778,31.0722989 L21.0439691,31.0333438 L21.7360107,30.9774291 L22.157339,30.9330534 L22.4927425,30.8870506 L22.6676401,30.8556844 L22.804,30.822 L22.8268579,30.7466058 L22.8428151,30.6770769 L22.8716442,30.5123302 L22.8896797,30.3666391 C22.9592466,29.7008984 22.9020091,28.7093415 22.7063881,27.4192028 C22.5821951,26.6001377 23.1455001,25.8354759 23.9645652,25.7112828 C24.7836303,25.5870898 25.5482921,26.1503948 25.6724851,26.9694599 Z M26.8893837,26.9694599 C27.0135767,26.1503948 27.7782385,25.5870898 28.5973036,25.7112828 C29.4163687,25.8354759 29.9796737,26.6001377 29.8554807,27.4192028 C29.6598597,28.7093415 29.6026222,29.7008984 29.6721891,30.3666391 L29.6721891,30.3666391 L29.6902246,30.5123302 L29.7190537,30.6770769 L29.7350109,30.7466058 L29.7559186,30.815 L29.8580124,30.8350745 L30.0327478,30.8592005 L30.2528007,30.8821846 L30.666391,30.9143223 L31.370229,30.9523339 L32.243328,30.9841541 L33.2803508,31.009061 L34.799016,31.0293734 L36.8411683,31.0361512 L38.4678028,31.0290866 L39.6325771,31.0184805 L41.4960873,30.9931619 L43.4942021,30.9558738 C44.322445,30.9384033 45.0080312,31.5956642 45.0255016,32.4239071 C45.0429721,33.25215 44.3857112,33.9377362 43.5574683,33.9552066 C42.6141281,39.8638824 37.9592447,42.6809968 33.1410125,41.2560195 C30.260811,40.4042087 28.762529,37.7210043 28.5059295,33.5334895 L28.4805275,33.5251664 C28.3408904,33.4781626 28.2247678,33.4276743 28.131275,33.373582 C26.5849578,32.4789267 26.368331,30.405852 26.8893837,26.9694599 Z M21.8100664,33.9626956 L21.392881,34.0048579 L20.9334719,34.0420929 L20.1850341,34.0913032 L19.0738871,34.1450485 L18.4687187,34.167062 L17.497638,34.1942924 L16.697805,34.20932 C16.4822803,36.5237071 16.7784946,37.905866 17.3831436,38.3832931 C18.416041,39.1988624 20.2496669,38.8637828 20.8913996,37.8958223 C20.5262617,36.7075662 20.8512978,35.3556609 21.8100664,33.9626956 Z M33.9918244,38.379195 C36.9491963,39.2538286 39.6989185,37.7345045 40.5040474,34.0106078 L39.5738141,34.0240876 L37.5876939,34.0425259 L35.9637098,34.045227 L35.173025,34.0410709 L34.0703446,34.0273643 L33.0656894,34.0044214 L32.1568197,33.9719395 L31.6030148,33.9448359 L31.5441157,33.9418568 C31.7961883,36.5882609 32.6487071,37.9819722 33.9918244,38.379195 Z M27.9143488,9.56330424 L27.9359718,9.74751914 C28.1819103,11.4522625 25.8607497,12.1300899 25.1201016,10.6553641 L25.0621284,10.5274634 C24.548488,9.26623058 22.6901384,8.34916954 21.1479287,9.09289467 C20.0393799,9.6274884 19.5560425,11.2689806 19.9743009,14.3621112 C20.1951328,15.9952215 18.0032316,16.7381962 17.1855136,15.3074085 C16.9310868,14.8622297 16.6896491,14.5305682 16.4732053,14.3137037 C16.327062,14.1672763 16.2260869,14.1032169 16.1786616,14.0903639 C14.2460395,13.5665918 12.6367862,15.6669089 12.4773742,18.1676936 C12.417888,19.1008869 12.7398141,19.881534 13.5199632,20.6039848 L16.4170845,20.0586461 L19.3362784,19.5328976 L20.6826518,19.3075788 L21.6480442,19.1648786 L22.0340406,19.1196692 L22.2464777,19.1028208 L22.3520204,19.0996252 C22.8562112,19.0996252 23.2749406,19.2304115 23.6303386,19.4917646 L23.657,19.512 L23.6930262,19.4458642 C23.7984372,19.2702953 23.9395257,19.116721 24.1089214,18.9961047 L24.2411605,18.9119934 C26.9279659,17.3938455 30.8287867,17.9214682 36.0139948,20.2819673 L36.561,20.536 L38.8241313,19.4780302 C39.459025,19.1810836 40.2075546,19.3650526 40.6347876,19.9044432 L40.7212612,20.0254213 L42.513,22.811 L42.6382072,22.381404 C42.8355839,21.7038075 43.4751526,21.2617648 44.1674094,21.3034803 L44.3064479,21.3183471 C45.3727033,21.482393 46.3675276,21.756841 47.2876286,22.1418064 C47.6146697,21.3573921 47.6981036,20.8137351 47.6085417,20.5417895 C47.4005696,19.9103031 46.176716,19.5468522 44.6677902,20.4939769 L44.4989958,20.6046593 C43.1076227,21.5561503 41.4830321,19.8555182 42.409242,18.5252748 L42.487714,18.4210802 C43.7455494,16.8716745 43.3409393,14.4363404 42.6033872,13.7148958 C42.1712209,13.2921677 40.8020559,13.2662641 40.2517746,14.1514803 L40.1755935,14.2911604 C39.4155505,15.8925044 36.9949462,15.0830425 37.3510668,13.346625 C38.5821851,7.34378376 36.2884784,3.85743547 32.978212,3.50986984 C30.7335869,3.27419258 27.6559752,6.7246967 27.9143488,9.56330424 Z" id="形状结合" fill="#11CEE5" fill-rule="nonzero"></path>
    </g>
</svg>