<?xml version="1.0" encoding="UTF-8"?>
<svg width="60px" height="60px" viewBox="0 0 60 60" version="1.1" xmlns="http://www.w3.org/2000/svg" xmlns:xlink="http://www.w3.org/1999/xlink">
    <title>QA</title>
    <g id="QA" stroke="none" stroke-width="1" fill="none" fill-rule="evenodd">
        <path d="M25.9785304,0.776198328 C29.5760945,0.776198328 32.9415352,4.82627043 35.6122644,11.0878538 L35.9293877,11.8497414 C35.9816759,11.9784526 36.0336789,12.1080191 36.0853928,12.238426 L36.3921792,13.0308356 L36.6918522,13.8427106 L37.0562543,14.8848646 L37.196293,15.3086568 L37.4123508,15.999109 L37.628256,16.7362835 L37.8527346,17.5491619 L38.0945125,18.4667261 L38.3623159,19.5179578 L38.9544993,21.8904975 L39.2692797,23.1031308 C39.3039216,23.2331943 39.3384643,23.3617166 39.3729202,23.4887142 L39.5787098,24.2325369 L39.7829978,24.9405645 L39.9863682,25.6135934 C40.0202193,25.7228925 40.0540565,25.8307666 40.0878919,25.9372322 L40.2909814,26.5592564 L40.4946137,27.1482732 C40.5626465,27.3391993 40.6308672,27.524757 40.699373,27.7050789 L40.9058435,28.23047 C41.9434477,30.7802168 43.0671269,32.1817849 44.6054686,32.8831884 L44.7606972,32.9510115 C50.631704,35.406925 56.6425848,40.7490409 59.4441907,45.9870159 C60.0230636,47.0692958 59.1279877,48.3507992 57.9125859,48.1798542 C55.2249179,47.8018366 51.5508963,48.6164538 47.3755978,50.1884352 C46.7691256,50.4167693 46.2730237,50.9249256 45.5345633,52.0661456 L44.4797773,53.7479684 C43.0505827,55.9536569 41.6306436,57.3174052 39.427111,58.1377069 C38.4470372,58.5025558 37.403796,57.7777357 37.403796,56.731954 C37.403796,49.7491525 34.2076455,46.5458549 27.5183548,44.4051873 C22.0763331,42.6636634 17.9163432,36.6611988 17.7695075,31.1467678 L17.7654947,30.8464932 C17.7654947,24.5963161 15.6802285,16.5098301 12.0370914,12.1307874 C10.4480679,10.2207847 9.12420941,9.97312315 7.62342049,11.7655072 L7.43,12.006 L7.61023921,11.9738797 C9.1933925,11.6959073 10.246833,11.8351882 10.9529936,12.4905707 L11.0563359,12.5927612 C11.6269195,13.1933658 11.6025826,14.1428014 11.001978,14.713385 C10.5139867,15.1769841 9.79571251,15.2478428 9.23746775,14.9359659 L9.113,14.858 L9.06638346,14.8552113 C8.9369506,14.8500764 8.76041137,14.8588132 8.54191573,14.8844311 L8.37025765,14.9068567 C7.84987741,14.981375 7.18919243,15.1309137 6.39370858,15.3556656 L5.77190693,15.5383351 L5.10007189,15.7492276 C4.98395861,15.7867293 4.86578211,15.8254076 4.74555314,15.8652631 C3.48657751,16.2826091 2.34520749,14.9805575 2.92382912,13.7870776 C6.19297572,7.04405129 10.4184588,5.49443913 14.3433254,10.21212 C18.5125459,15.2235137 20.7654947,23.9602588 20.7654947,30.8464932 C20.7654947,35.1750979 24.1742489,40.185156 28.4327186,41.5479266 C35.3682671,43.7674002 39.4325807,47.3150706 40.2501374,54.052333 L40.266,54.197 L40.3143886,54.1558957 C40.8210809,53.6948437 41.290085,53.1193591 41.7780951,52.3952097 L42.1280679,51.8553794 L42.8445216,50.704996 C43.9937429,48.8789635 44.8817685,47.9217713 46.3185472,47.3808305 C49.6169583,46.1389934 52.6334703,45.3243039 55.301069,45.1307678 L55.357,45.127 L55.2864784,45.0289012 C52.5470412,41.3109839 48.2164255,37.7535397 43.9871272,35.883898 L43.6029718,35.7186227 C41.3883972,34.7922392 39.8915449,33.2423509 38.6368452,30.5844795 L38.3968961,30.0560873 C38.041125,29.2423557 37.7031782,28.3326008 37.3714182,27.3149671 L37.1510338,26.6204325 L36.9317162,25.8931533 L36.7126993,25.1323487 L36.4932167,24.3372383 L36.2725023,23.5070415 L36.0497898,22.6409775 L35.3001032,19.6464655 L35.0707355,18.760938 L34.9290931,18.2305431 L34.7284334,17.5077913 L34.5358179,16.8519346 L34.3443613,16.239895 L34.1471781,15.6485948 L34.0054416,15.2417871 L33.7160603,14.4436785 L33.4193466,13.6669929 C33.019131,12.6460926 32.6011074,11.684712 32.1722558,10.7924181 L31.8486959,10.1363008 C30.1133782,6.70768997 28.2327316,4.42273318 26.6534716,3.89371716 L26.538,3.858 L26.410625,3.98623351 C23.933506,6.43642344 21.8195825,7.223354 17.5991726,7.26632131 L17.221254,7.26820523 C16.3928269,7.26820523 15.721254,6.59663235 15.721254,5.76820523 C15.721254,4.9397781 16.3928269,4.26820523 17.221254,4.26820523 L17.9067264,4.26211714 C21.4208723,4.19573052 22.731104,3.56352367 24.8805484,1.25422209 C25.1643076,0.949359299 25.5620444,0.776198328 25.9785304,0.776198328 Z M30.2772712,27.4970283 C32.6061388,27.6832461 34.7799593,28.6007094 36.7696137,30.2198431 C38.6656955,31.7628297 40.2430929,33.5842761 41.4965535,35.6782495 C41.9220459,36.3890573 41.690752,37.3102106 40.9799442,37.7357029 C40.2691364,38.1611953 39.3479831,37.9299014 38.9224907,37.2190936 C37.8484719,35.4248875 36.5014082,33.869411 34.8760475,32.5467309 C33.9186799,31.7676479 32.9335357,31.2112322 31.9135069,30.870245 L31.7119837,30.8073473 L31.7162871,30.8714244 C31.7889403,31.9258846 31.928513,33.0081528 32.1353294,34.1183526 L32.247144,34.6881983 L33.4393062,33.739937 C34.0873748,33.2238957 35.0310723,33.3309249 35.5471136,33.9789935 C36.0327995,34.5889403 35.9665614,35.4607592 35.4167891,35.9914426 L35.3080571,36.0868009 L33.3653486,37.6314377 C33.8425764,38.4646164 34.4544122,39.2821569 35.203947,40.0852999 C35.7691717,40.6909505 35.7364,41.6401324 35.1307495,42.205357 C34.5250989,42.7705817 33.575917,42.73781 33.0106924,42.1321595 C31.067743,40.0502468 29.8313169,37.8022739 29.3306056,35.3999556 C28.8675199,33.178158 28.6426197,31.0383555 28.6577961,28.9812696 C28.6642229,28.1101415 29.4088836,27.4276962 30.2772712,27.4970283 Z M23.7943439,11.6293521 C27.3495872,10.4741835 31.4076976,12.7866191 32.6241193,16.53038 C33.110622,18.0276816 33.32077,19.4667496 33.2240946,20.7466169 L34.0957934,21.123399 C34.8560691,21.4524467 35.2056486,22.3355177 34.876601,23.0957934 C34.5669091,23.811347 33.766456,24.1631005 33.0395098,23.9276782 L32.9042066,23.876601 L32.2891449,23.610029 C31.7110082,24.452218 30.8629143,25.0954503 29.7226031,25.4659599 C26.1337495,26.6320491 21.7068095,24.3667596 20.5026655,20.6607852 C19.214941,16.6975768 20.3018215,12.7641414 23.7943439,11.6293521 Z M29.7709497,17.457431 C29.0481768,15.2329648 26.638231,13.8597038 24.7213949,14.4825216 C23.1138266,15.0048522 22.518898,17.157907 23.355835,19.7337342 C24.0486993,21.8661512 26.7846736,23.2661644 28.7955522,22.6127903 C28.9984386,22.5468685 29.1808872,22.4537644 29.3423625,22.3350456 L28.6632842,22.0411282 C27.9030085,21.7120806 27.5534291,20.8290095 27.8824767,20.0687338 C28.1921686,19.3531802 28.9926217,19.0014267 29.7195678,19.2368491 L29.8548711,19.2879263 L30.2131359,19.4427712 C30.1519967,18.8457808 30.005844,18.1803614 29.7709497,17.457431 Z" id="形状结合" fill="#11CEE5" fill-rule="nonzero"></path>
    </g>
</svg>