<?xml version="1.0" encoding="UTF-8"?>
<svg width="24px" height="24px" viewBox="0 0 24 24" version="1.1" xmlns="http://www.w3.org/2000/svg" xmlns:xlink="http://www.w3.org/1999/xlink">
    <title>分享_白色</title>
    <g id="分享_白色" stroke="none" stroke-width="1" fill="none" fill-rule="evenodd">
        <path d="M0.431430587,9.50161841 L23.0269905,0.0542328875 C23.2721989,-0.0482422845 23.5540025,-0.00330020434 23.7554708,0.170473831 C23.9568191,0.3441575 24.0433686,0.617033039 23.9790944,0.875630732 L18.3507986,23.4664662 C18.2920483,23.7016891 18.1168479,23.8900724 17.8871301,23.965257 C17.6574124,24.0404416 17.4052692,23.9918246 17.2196517,23.8366359 L12.332625,19.7509731 C12.053163,19.5176478 11.642481,19.5368355 11.3858047,19.7949814 L8.87908291,22.3084244 C8.67818492,22.5087962 8.37704808,22.5685583 8.11517821,22.4599684 C7.85345845,22.3513784 7.68222083,22.0956725 7.68105003,21.8114108 L7.68105003,16.4989677 C7.68092995,16.3120003 7.75481069,16.1325633 7.88663123,16.000207 L18.0804029,5.77199807 L6.04564674,14.8299056 C5.78494768,15.0256989 5.42437002,15.0163008 5.17432827,14.8069828 L0.252237507,10.6930655 C0.0639181591,10.5352862 -0.0287254737,10.2903037 0.00786966183,10.0468574 C0.0444347768,9.80329061 0.205105134,9.59668356 0.431430587,9.50161841 Z" id="Fill-1" fill="#FFFFFF"></path>
    </g>
</svg>