<?xml version="1.0" encoding="UTF-8"?>
<svg width="60px" height="60px" viewBox="0 0 60 60" version="1.1" xmlns="http://www.w3.org/2000/svg" xmlns:xlink="http://www.w3.org/1999/xlink">
    <title>团队头像</title>
    <g id="团队头像" stroke="none" stroke-width="1" fill="none" fill-rule="evenodd">
        <g id="Group" transform="translate(1.500990, 0.499470)">
            <path d="M31.7904887,0.0268010157 C36.0654896,0.475660158 39.1538808,4.1462253 39.1742713,9.77613659 L39.17301,10.0005303 L39.2957512,9.97834836 C40.6917826,9.74508296 42.1462419,10.1328271 43.0766055,10.9558989 L43.2001701,11.0708169 C44.2821265,12.1291443 44.9592876,14.1046822 44.777985,16.1373885 L44.74201,16.4505303 L44.7689603,16.4500401 C46.6659419,16.4057249 48.2920369,17.3575122 48.8979845,18.9381479 L48.956999,19.1038901 C49.3724868,20.3654771 49.0637655,21.8543972 48.171099,23.6288587 C47.7988026,24.3689174 46.8970606,24.6670477 46.1570019,24.2947513 C45.585355,24.0071767 45.277387,23.4037057 45.3384074,22.8028637 L43.0259805,22.5670882 L42.0159775,26.1875921 L37.9586341,20.3372911 L35.0521101,21.6967035 L28.5532944,19.0590564 L24.4571551,19.573105 L22.9169276,22.9547564 L20.9608525,20.3372911 L12.8115869,21.3071618 C12.8579921,21.6967496 12.7524379,22.1039575 12.485057,22.4321572 C11.9618102,23.0744221 11.0169762,23.1709054 10.3747112,22.6476586 C8.68477157,21.2708818 7.85317996,19.5054763 7.98246075,17.4773769 C8.24024656,13.4333482 11.0699518,9.6727475 15.2299404,10.636896 L15.39301,10.6775303 L15.4142595,10.4868932 C15.6764472,8.37218148 16.5591388,6.84590796 18.1344102,5.99797423 L18.343814,5.89122848 C20.2066558,4.99287965 22.2108414,5.21446566 23.7879772,6.09409092 L23.86101,6.13553034 L23.9125515,5.99234063 C25.1813964,2.55518567 28.5935949,-0.30886091 31.7904887,0.0268010157 Z" id="形状结合" fill="#E06666"></path>
            <path d="M2.14581117,40.7016641 C4.00262566,39.2299339 6.30523304,40.2620436 9.11443677,43.0442457 C9.70304519,43.6271965 9.70763159,44.5769329 9.1246808,45.1655413 C8.54173,45.7541497 7.5919936,45.7587361 7.00338519,45.1757853 C6.87388165,45.0475265 6.74843295,44.9261003 6.62706124,44.811232 L6.27519926,44.486026 L5.9479322,44.1985192 C5.89544465,44.1536514 5.84398743,44.1102858 5.79356331,44.0683879 L5.50343791,43.8343396 L5.23823981,43.6338701 L4.99810196,43.4653312 C4.92224749,43.4142902 4.85059189,43.3682964 4.78315731,43.3270749 L4.59353882,43.217453 L4.42937944,43.1348174 C4.20230117,43.0302796 4.06159611,43.011258 4.00928345,43.0527215 C3.01406745,43.84154 2.5989838,46.7768881 3.49570723,49.0691133 C3.91115843,50.1310992 5.2154636,50.4117481 8.04244877,49.5530481 C8.83511499,49.3122748 9.67288323,49.7596724 9.91365651,50.5523386 C10.1544298,51.3450049 9.70703216,52.1827731 8.91436594,52.4235464 C4.77858228,53.6797954 1.82981229,53.0453051 0.70188202,50.1620637 C-0.631614861,46.7533482 -0.0184262932,42.417061 2.14581117,40.7016641 Z" id="Path-3" fill="#000000" fill-rule="nonzero"></path>
            <path d="M8.28489444,47.8351449 C9.10639879,47.7282707 9.85899833,48.3075928 9.96587257,49.1290972 C10.4435835,52.8010917 11.9243134,54.711502 14.4900916,55.2269736 C14.9388781,55.317136 15.4484455,55.3996896 16.0079984,55.4745307 L16.702764,55.5606312 C16.8223268,55.574362 16.9437163,55.5877827 17.0668461,55.6008924 L17.8258182,55.6758121 L18.6224128,55.7432279 L19.4524846,55.8031001 L20.311888,55.8553888 C20.4573359,55.8634694 20.6038332,55.8712324 20.7512936,55.8786769 L21.6469218,55.9195155 L22.5615182,55.952671 L23.4909373,55.9781035 L24.4310336,55.995773 L25.3776618,56.0056398 L26.3266764,56.0076639 L27.273932,56.0018054 L28.2152832,55.9880246 L29.1465845,55.9662816 L30.0636905,55.9365364 L30.9624559,55.8987492 L31.8387351,55.8528802 L32.6883828,55.7988894 L33.5072535,55.736737 C33.6409369,55.725696 33.7731652,55.7143132 33.903852,55.7025878 L34.6687846,55.6281183 C34.7929601,55.6150194 34.9154215,55.6015763 35.0360823,55.5877881 L35.7377495,55.5009117 C37.2082203,55.3036795 38.345207,55.0478532 38.9589703,54.7316078 L39.5956107,54.3960432 C42.4501577,52.8550764 43.6901697,51.658201 43.9726502,50.5564441 C44.1783965,49.753973 44.9957183,49.2702319 45.7981894,49.4759783 C46.6006606,49.6817246 47.0844016,50.4990463 46.8786553,51.3015175 C46.31032,53.5181923 44.3325162,55.3376736 40.3330607,57.3984178 C39.4455496,57.8557134 37.8712596,58.2111038 35.8990138,58.4707918 L35.0895758,58.5695775 C34.9513603,58.5851961 34.8115472,58.6003929 34.6702222,58.6151699 L33.8048132,58.6988087 C33.6577827,58.7119137 33.5094113,58.7246026 33.3597847,58.7368772 L32.4476471,58.8055675 L31.5094917,58.8644024 C31.3511925,58.8733918 31.1919804,58.8819743 31.031941,58.8901516 L30.0624609,58.9343689 C29.8994544,58.940933 29.7357917,58.9470958 29.5715584,58.9528589 L28.5799959,58.982657 L27.5788464,59.0029525 C27.4114174,59.0055481 27.2437602,59.0077515 27.0759602,59.0095644 L26.0681323,59.0157716 L25.0609866,59.0126968 C24.8934141,59.0114157 24.7260411,59.0097516 24.5589533,59.0077062 L23.5605331,58.9908738 L22.5730645,58.9649801 C22.4096272,58.9599142 22.2468174,58.9544745 22.0847206,58.9486627 L21.1213813,58.9093422 L20.1792629,58.8611808 C20.0242397,58.8524221 19.8702719,58.8432986 19.7174451,58.8338123 L18.8148599,58.772555 L17.9437647,58.7026774 C17.8014346,58.6903176 17.6605877,58.6776024 17.5213096,58.6645335 L16.7051516,58.5818908 L15.930753,58.4908482 C15.8053947,58.4749794 15.6819476,58.4587642 15.5604971,58.4422046 L14.8564395,58.3387277 C14.5170756,58.2849372 14.1972224,58.2280794 13.8991906,58.168204 C9.95237823,57.3752789 7.62228565,54.3690366 6.99094215,49.516123 C6.88406791,48.6946187 7.46339009,47.9420191 8.28489444,47.8351449 Z" id="Path-4" fill="#000000" fill-rule="nonzero"></path>
            <path d="M51.5349127,39.9574373 C53.6546964,39.3990901 55.3499898,40.4369967 56.1724867,42.4394292 C56.7852376,43.9312191 56.9207814,45.948533 56.6129577,47.9761568 C56.0645255,51.5886607 53.632967,54.1726091 50.7923739,54.9470697 C49.1887621,55.3842791 47.0794548,55.0235187 44.3713649,53.9590503 C43.6003609,53.6559919 43.221016,52.7852924 43.5240744,52.0142884 C43.8271328,51.2432844 44.6978324,50.8639396 45.4688363,51.166998 C47.6283583,52.0158408 49.1708604,52.2796591 50.0032556,52.0527145 C51.728246,51.5824123 53.2817206,49.9315788 53.6469431,47.5258713 C53.8794177,45.9945693 53.7796517,44.5097411 53.3974609,43.5792679 C53.1087021,42.8762622 52.8448507,42.7147249 52.2990446,42.8584892 C50.83768,43.2434101 49.9383352,43.735105 49.5551785,44.2415332 L49.4854161,44.342988 C49.0493001,45.0473276 48.1247781,45.2647659 47.4204385,44.8286499 C46.7160988,44.392534 46.4986605,43.468012 46.9347765,42.7636723 C47.7524285,41.4431411 49.3043482,40.544964 51.5349127,39.9574373 Z" id="Path-5" fill="#000000" fill-rule="nonzero"></path>
            <path d="M22.7401705,18.4125237 C25.4269758,16.8943758 29.3277966,17.4219986 34.5130048,19.7824976 L35.06001,20.0365303 L37.3231412,18.9785605 C37.958035,18.6816139 38.7065646,18.8655829 39.1337976,19.4049735 L39.2202712,19.5259516 L41.01201,22.3115303 L41.1372172,21.8819344 C41.3345939,21.2043378 41.9741626,20.7622951 42.6664194,20.8040107 L42.8054579,20.8188774 C45.0731334,21.1677646 47.017716,22.016015 48.6075379,23.3647384 C49.1091351,23.7902677 49.4901244,24.5387005 49.7591137,25.6364536 L49.8446405,26.0153453 C49.8582075,26.0806623 49.8714318,26.1470665 49.8843149,26.2145624 L49.95753,26.6326752 C49.969054,26.7045562 49.9802396,26.777538 49.9910885,26.8516251 L50.0521514,27.3094481 L50.1052015,27.7940163 L50.1503095,28.3055472 L50.1875463,28.8442583 C50.1931004,28.9363205 50.1983295,29.0295243 50.2032351,29.1238743 L50.2287979,29.7037631 L50.2466666,30.3113757 L50.2569121,30.9469293 C50.2579883,31.0551954 50.2587499,31.1646348 50.2591982,31.275252 L50.2581417,31.9531249 L50.249639,32.6594825 L50.2230784,33.7729032 L50.1801626,34.9516373 L50.1211307,36.1964187 L50.0462217,37.5079812 L49.9220587,39.3618811 L49.8110331,40.8321198 L49.6395825,42.9002513 L49.4937422,44.5331612 C49.4767265,44.7185231 49.4594419,44.9051988 49.4418898,45.0931926 C49.3648786,45.9180324 48.6337838,46.5242673 47.8089439,46.447256 C46.9841041,46.3702447 46.3778693,45.6391499 46.4548806,44.8143101 L46.5930913,43.2861763 L46.7173058,41.8149494 L46.8616449,39.9433447 L46.9543079,38.6082966 L47.0576112,36.9214331 L47.1202719,35.727318 L47.1705487,34.5950581 L47.1973271,33.8750135 L47.2350888,32.5195971 L47.2462406,31.8847428 L47.2535443,30.9867565 L47.2522536,30.424673 L47.2461334,29.8921506 L47.2280823,29.1493601 L47.2102573,28.6918724 L47.1750441,28.0628468 L47.1460411,27.6820109 L47.1127146,27.3322886 L47.0751487,27.0139385 L47.0334279,26.7272194 C47.0261328,26.6820832 47.0186682,26.6382757 47.0110356,26.5958023 L46.9632404,26.3570148 L46.9115008,26.1505052 C46.9025536,26.1187911 46.8934455,26.0884327 46.8841783,26.0594354 L46.8266805,25.9018275 C46.7771984,25.7841704 46.7238272,25.7008097 46.6667866,25.6524194 C45.8431831,24.9537164 44.8789817,24.4361381 43.7626416,24.1000889 L43.62601,24.0615303 L42.971401,26.3122344 C42.6249006,27.5017744 41.0857115,27.7671991 40.3507397,26.8188969 L40.2696179,26.7040746 L37.40501,22.2515303 L35.687603,23.0554341 C35.3219261,23.226465 34.9048729,23.2420424 34.5302867,23.1030202 L34.3919908,23.0436417 C30.0532046,20.9172512 26.8967505,20.2002105 24.9806625,20.7169509 L24.84901,20.7555303 L24.8384507,20.8331358 C24.5341036,22.8627461 24.1691803,24.0183417 23.4773892,24.6348402 L23.3763096,24.7192802 C22.4956664,25.4080877 21.1980931,24.9260299 20.9807809,23.8293241 C20.9246802,23.546202 20.8677512,23.2841678 20.8104259,23.0437765 L20.6953751,22.5920156 C20.5992726,22.2398701 20.5028696,21.9488716 20.4081669,21.7215899 L20.37801,21.6525303 L19.4959663,21.7924466 L17.7565851,22.0934905 L14.6677933,22.6574167 L11.1158952,23.3271008 C10.4310001,23.4577109 9.92640582,24.0430267 9.8981176,24.73969 L9.77294029,27.9750552 L9.65298705,31.5098041 L9.56581142,34.6620607 L9.52578238,36.5493988 L9.49596676,38.6658723 L9.48880697,39.8055652 L9.49377569,41.4029088 L9.50191556,42.0091697 L9.52084588,42.8345981 L9.5379328,43.3287211 L9.55858219,43.7777643 L9.58278468,44.1815995 L9.61053094,44.5400982 L9.6418116,44.8531322 L9.67661731,45.1205731 L9.71493873,45.3422926 C9.87863563,46.1543855 9.35300684,46.9454194 8.54091398,47.1091163 C7.72882111,47.2728132 6.93778721,46.7471844 6.77409031,45.9350915 L6.7353061,45.7208093 C6.72908052,45.6826313 6.72297409,45.6432202 6.7169867,45.6025743 L6.68248995,45.3438703 L6.65084475,45.0554591 L6.6087118,44.5669792 L6.57296448,44.0112414 L6.54358456,43.3879956 L6.52055381,42.6969916 L6.50385401,41.9379793 L6.49140427,40.81974 L6.49140427,39.2503919 L6.49999989,38.2168456 L6.52792683,36.3402366 L6.56269135,34.6996537 L6.64996203,31.5287939 L6.79063741,27.4341513 L6.90058773,24.6179744 C6.98545241,22.5279843 8.49923504,20.7720371 10.5539202,20.3802068 L14.9154228,19.5593004 L17.3782955,19.1133225 L18.6518856,18.8944807 L19.6411186,18.7369684 L20.1469921,18.6654174 L20.533026,18.6202021 L20.7454809,18.6033515 L20.8510304,18.6001556 C21.3552212,18.6001556 21.7739506,18.7309418 22.1293486,18.9922949 L22.15601,19.0125303 L22.1920361,18.9463945 C22.2974472,18.7708256 22.4385357,18.6172513 22.6079313,18.496635 L22.7401705,18.4125237 Z" id="Path-6" fill="#000000" fill-rule="nonzero"></path>
            <path d="M20.9486109,44.509935 C23.7079849,43.6840246 26.8726217,44.0595446 29.9573903,46.4440698 C30.6128259,46.9507213 30.7334392,47.892779 30.2267877,48.5482146 C29.7201362,49.2036501 28.7780785,49.3242634 28.122643,48.8176119 C25.867628,47.074486 23.7015326,46.8174543 21.8088371,47.3839584 L21.5797036,47.4575381 L21.4046389,47.5220103 L21.2865459,47.5721276 L21.2497709,47.5901633 C20.5168278,47.9762798 19.6096508,47.6951214 19.2235342,46.9621784 C18.8374177,46.2292353 19.1185761,45.3220583 19.8515191,44.9359417 C20.0834792,44.8137444 20.4542603,44.6578994 20.9486109,44.509935 Z" id="Path-8" fill="#000000" fill-rule="nonzero" transform="translate(24.795216, 46.621588) rotate(175.000000) translate(-24.795216, -46.621588) "></path>
            <path d="M13.866496,32.2407069 C13.3344329,35.7957872 13.6964676,38.0692445 14.9526001,39.0610789 C16.8367989,40.5488304 20.1731694,39.8270364 20.9608525,37.5833524 C21.4859745,36.087563 21.8418021,34.7692598 22.0283351,33.6284426 L22.0283351,32.04139 L13.866496,32.2407069 Z" id="Path-10" fill="#000000"></path>
            <circle id="Oval" fill="#FFFFFF" cx="17.99901" cy="34.0005303" r="2.5"></circle>
            <path d="M12.3830181,32.0186855 C12.5056371,31.1993833 13.2692151,30.63461 14.0885173,30.757229 C14.9078195,30.879848 15.4725928,31.643426 15.3499738,32.4627282 C14.890368,35.5336716 15.1758003,37.3260913 15.8821536,37.8838235 C16.9780716,38.7491534 18.9754094,38.319141 19.494109,37.2122265 L19.5455364,37.0864818 C19.8199504,36.3048243 20.6760656,35.8936223 21.4577231,36.1680363 C22.2393805,36.4424503 22.6505826,37.2985655 22.3761686,38.080223 C21.2460484,41.2993254 16.7169041,42.3653873 14.0230466,40.2383343 C12.2171349,38.8123977 11.7784978,36.0579028 12.3830181,32.0186855 Z" id="Path-10-Copy" fill="#000000" fill-rule="nonzero"></path>
            <path d="M28.4678877,32.04139 C28.534805,36.2030379 29.7339852,38.6286204 32.0654284,39.3181376 C35.5625932,40.3524133 40.297094,38.6327915 40.7117071,32.04139 C35.9517836,31.6121558 31.8705105,31.6121558 28.4678877,32.04139 Z" id="Path-11" fill="#000000"></path>
            <circle id="Oval-Copy" fill="#FFFFFF" cx="35.99901" cy="34.0005303" r="2.5"></circle>
            <path d="M40.8058742,30.5443488 C41.6326672,30.5963558 42.2607554,31.3087641 42.2087484,32.1355571 C41.7808653,38.9379199 36.8042702,42.2838601 31.6400225,40.7565498 C28.5435718,39.8407841 27.0443433,36.8082939 26.9680815,32.0655062 C26.9547625,31.2371862 27.6154514,30.5549029 28.4437715,30.5415839 C29.2720915,30.5282649 29.9543748,31.1889538 29.9676938,32.0172739 C30.0252667,35.597782 30.9243987,37.4164568 32.4908344,37.8797253 C35.8327196,38.8680776 38.9094483,36.7994845 39.2146658,31.947223 C39.2636136,31.1690648 39.8975535,30.566922 40.661268,30.5421329 L40.8058742,30.5443488 Z" id="Path-11-Copy" fill="#000000" fill-rule="nonzero"></path>
            <path d="M22.4635752,25.2118132 C23.2826402,25.0876201 24.047302,25.6509252 24.1714951,26.4699902 L24.2195968,26.7982946 L24.3015063,27.4295166 C24.6381672,30.2965865 24.3262773,32.0660366 22.9296038,32.8741123 C22.8817555,32.901796 22.8295567,32.9286928 22.7729283,32.9548196 L22.5896752,33.0309068 C22.5568919,33.0432086 22.5229813,33.0553221 22.4879337,33.0672495 L22.2639244,33.136596 L22.012151,33.2015749 L21.732139,33.2622874 L21.4234139,33.3188344 C21.3695406,33.3279174 21.3144511,33.3368311 21.2581356,33.3455775 L20.905451,33.3960657 L20.5228669,33.442641 L19.891891,33.5053882 L19.4324819,33.5426232 L18.684044,33.5918335 L17.572897,33.6455788 L16.9677287,33.6675923 L15.996648,33.6948228 L14.5811696,33.7208527 L13.0242635,33.735878 L11.3221334,33.7407069 C10.4937063,33.7407069 9.82213339,33.069134 9.82213339,32.2407069 C9.82213339,31.4122797 10.4937063,30.7407069 11.3221334,30.7407069 L12.5164885,30.7375966 L13.6451888,30.7285442 L15.0446022,30.7079527 L16.0124793,30.6866592 L17.7296912,30.6308392 L18.928788,30.5728293 L19.5429791,30.5338742 L20.2350206,30.4779594 L20.656349,30.4335838 L20.9917525,30.387581 L21.1666501,30.3562147 L21.30301,30.3225303 L21.3258679,30.2471361 L21.3418251,30.1776072 L21.3706541,30.0128605 L21.3886897,29.8671694 C21.4582566,29.2014288 21.4010191,28.2098718 21.2053981,26.9197331 C21.081205,26.100668 21.6445101,25.3360062 22.4635752,25.2118132 Z" id="Path-7" fill="#000000" fill-rule="nonzero"></path>
            <path d="M41.562625,25.2118132 C42.3816901,25.0876201 43.1463519,25.6509252 43.270545,26.4699902 C43.7915977,29.9063824 43.5749708,31.9794571 42.0286537,32.8741123 C41.9351608,32.9282047 41.8190382,32.9786929 41.6794011,33.0256967 L41.452199,33.093604 C41.4113558,33.1044913 41.3690153,33.1151646 41.3251637,33.1256257 L41.0438097,33.1858612 L40.725525,33.2410944 C40.6693631,33.2498881 40.6116348,33.258477 40.5523262,33.2668632 L40.1774011,33.3147612 L39.7638862,33.3578811 C39.6917143,33.3646746 39.6179069,33.3712727 39.5424502,33.3776774 L39.0698064,33.4137986 L38.5569138,33.4453662 L38.0031089,33.4724698 L37.0942393,33.5049518 L36.089584,33.5278946 L34.9869036,33.5416013 L34.1962188,33.5457574 L32.5722348,33.5430562 L30.5861145,33.5246179 L28.3904203,33.490758 L26.6024603,33.455737 C25.7742174,33.4382665 25.1169565,32.7526804 25.134427,31.9244375 C25.1518975,31.0961946 25.8374836,30.4389337 26.6657265,30.4564041 L28.6638413,30.4936922 L30.5273515,30.5190109 L31.6921258,30.5296169 L33.3187603,30.5366815 L35.3609126,30.5299037 L36.8795778,30.5095913 L37.9166006,30.4846844 L38.7896996,30.4528643 L39.4935377,30.4148526 L39.9071279,30.3827149 L40.1271808,30.3597308 L40.3019162,30.3356049 L40.40401,30.3155303 L40.4249177,30.2471361 L40.4408749,30.1776072 L40.469704,30.0128605 L40.4877395,29.8671694 C40.5573064,29.2014288 40.5000689,28.2098718 40.304448,26.9197331 C40.1802549,26.100668 40.74356,25.3360062 41.562625,25.2118132 Z" id="Path-7-Copy" fill="#000000" fill-rule="nonzero" transform="translate(34.329469, 29.370206) scale(-1, 1) translate(-34.329469, -29.370206) "></path>
            <path d="M21.2625111,32.2859627 C21.8270542,31.6796768 22.7761986,31.6458376 23.3824845,32.2103807 C23.9887704,32.7749238 24.0226096,33.7240683 23.4580665,34.3303542 L23.168807,34.6494208 C21.960407,36.0237341 22.0021881,36.5882745 22.9321944,37.1650049 C23.636234,37.6016051 23.8530364,38.5262764 23.4164361,39.230316 C22.9798359,39.9343555 22.0551646,40.1511579 21.351125,39.7145577 C18.4959427,37.9439564 18.6159033,35.128263 21.2625111,32.2859627 Z" id="Path-9" fill="#000000" fill-rule="nonzero"></path>
        </g>
    </g>
</svg>