<?xml version="1.0" encoding="UTF-8"?>
<svg width="24px" height="24px" viewBox="0 0 24 24" version="1.1" xmlns="http://www.w3.org/2000/svg" xmlns:xlink="http://www.w3.org/1999/xlink">
    <title>推特</title>
    <g id="推特" stroke="none" stroke-width="1" fill="none" fill-rule="evenodd">
        <path d="M21.5565671,7.69273781 C21.5565671,7.47393001 21.5522312,7.25754297 21.5422702,7.04260838 C22.5047077,6.3455163 23.3396737,5.47301914 24,4.47444335 C23.1032465,4.86671962 22.1489242,5.12058565 21.1714573,5.22670017 C22.1887389,4.61817925 22.9688902,3.64497867 23.3375057,2.47709241 C22.3849999,3.03856524 21.3314486,3.44006886 20.211305,3.64922211 C19.3137312,2.65642766 18.0329226,2.0240979 16.6169374,2.00063081 C13.8975555,1.95691482 11.6930694,4.19087323 11.6930694,6.98955112 C11.6930694,7.38735241 11.7358724,7.77316384 11.8207753,8.14573232 C7.72572098,7.88953097 4.09690001,5.81753533 1.6695805,2.6938212 C1.246033,3.44217634 1.00295534,4.31680946 1.00295534,5.25418286 C1.00295534,7.02703011 1.87237471,8.60262852 3.19314449,9.53245486 C2.3846337,9.49696944 1.62712907,9.25888104 0.962671891,8.86851289 L0.962671891,8.93358849 C0.962671891,11.4114166 2.66052405,13.4874279 4.913321,13.9718068 C4.50029114,14.0859525 4.06473184,14.1453322 3.616692,14.1432247 C3.3054108,14.1416868 2.995155,14.1086222 2.69099299,14.0446573 C3.31686595,16.0751583 5.13624229,17.5586541 7.29016168,17.6080375 C5.6044385,18.9667078 3.48095875,19.7783728 1.1754271,19.7727054 C0.777983264,19.7727054 0.385109772,19.746789 0,19.6997409 C2.17999377,21.1534187 4.76762676,22 7.54938202,22 C16.604574,22.002107 21.5565671,14.3403596 21.5565671,7.69273781 Z" id="Fill-1" fill="#010210"></path>
    </g>
</svg>