<?xml version="1.0" encoding="UTF-8"?>
<svg width="40px" height="40px" viewBox="0 0 40 40" version="1.1" xmlns="http://www.w3.org/2000/svg" xmlns:xlink="http://www.w3.org/1999/xlink">
    <title>opnesea_白色</title>
    <g id="opnesea_白色" stroke="none" stroke-width="1" fill="none" fill-rule="evenodd">
        <path d="M20,0 C21.1045695,0 22,0.8954305 22,2 C22,2.7398375 21.5982846,3.38584934 21.0010775,3.73181186 L21,5.253 L24.3107012,5.25356069 C26.1209671,5.98913736 27.9697862,8.46016624 29.8571588,12.6666473 L30.0399281,13.0791438 C32.9661626,19.7657694 31.801162,27.346076 27.1414789,30.2535607 C25.707467,28.6089812 23.6606417,27.5993159 21.0010032,27.2245648 L21,31.24 L28.9306736,31.2400216 L28.9306736,31.2400216 C29.4650053,31.2400216 30.0506491,30.859541 30.3532926,29.3803881 L30.8911553,29.5038554 L31.5789224,29.6702061 L31.8677325,29.7283861 C31.9000099,29.7341736 31.9323884,29.7397116 31.9649064,29.7449759 L32.161998,29.7730872 L32.3642907,29.7934813 L32.5736355,29.8050073 L32.6815308,29.8070851 L32.6815308,29.8070851 L32.9049243,29.8031509 L33.1399974,29.7874711 L33.388601,29.7588948 C33.516594,29.7411907 33.650355,29.7182188 33.7909253,29.6893316 L34.0814535,29.6234785 C34.1314908,29.6111245 34.1823619,29.5980654 34.2341052,29.584277 L34.5553411,29.4926048 L34.8993624,29.3822812 L35.2680204,29.2521551 L35.6631658,29.1010757 C35.7313335,29.0740857 35.800682,29.0461747 35.8712498,29.0173188 L36.3095971,28.8326511 L36.7790595,28.6241526 L37.2814879,28.3906723 L37.8187333,28.1310592 L38.3926467,27.8441623 L39.0050792,27.5288305 C39.110464,27.4738418 39.2175309,27.4176202 39.3263184,27.360142 L40,27 C37.2277045,30.147034 35.1830587,33.9325799 33.8660624,38.3566376 C33.6090097,39.2200338 32.7007214,39.7115999 31.8373174,39.4545735 C31.592128,39.3815831 31.3675445,39.2519444 31.1817093,39.0761299 L31.1489925,39.0451773 C30.0464969,38.0021308 28.3170968,38.0157941 27.231219,39.0761299 L27.1228665,39.1819337 C26.1445183,40.1372693 24.5769579,40.1186139 23.6216223,39.1402657 L23.561187,39.0761299 C22.6931786,38.1214906 21.2156308,38.0512624 20.2609915,38.9192708 L20.181893,38.9946445 L20.1041291,39.0761299 C19.1347581,40.1391585 17.5017231,40.2543419 16.3927339,39.3379069 L15.7558164,38.8115777 C14.6973889,37.9369253 13.1602311,38.0054692 12.1838246,38.9429173 L12.0542516,39.0761299 C11.1673455,40.0523761 9.68406985,40.1640972 8.66356524,39.3605062 L8.50272098,39.2225472 L8.12561965,38.8613227 C7.18769231,37.9621091 5.69839537,37.9934928 4.79918183,38.9314202 L4.71627435,39.022554 L4.63823697,39.1178917 C3.57058671,40.494732 2.5207657,40.3447828 1.48877395,38.668044 C0.0460275997,36.3239276 -0.348112432,32.6428732 0.306353861,27.6248807 L8.71481879,27.6248807 C8.22881313,29.687747 9.28792279,31.2400216 11.5699776,31.2400216 L19,31.24 L19.0013375,27.0649699 C17.7984232,27.0352004 16.493673,27.1109395 15.087087,27.292187 L14.6471275,27.3518468 C16.070417,25.2217867 16.7820618,22.2663418 16.7820618,18.485512 C16.7820618,14.7046822 15.4583291,10.2940318 12.8108638,5.25356069 L12.8108638,5.25356069 L19,5.253 L18.9999275,3.73239368 C18.4427094,3.41002921 18.0554537,2.82654371 18.0054857,2.14926234 L18,2 C18,0.8954305 18.8954305,0 20,0 Z M9.26042927,12.482063 L13.3170403,14.9924901 L13.3170403,24.9198157 L3.910033,24.9198157 L9.26042927,12.482063 Z" id="Combined-Shape" fill="#FFFFFF"></path>
    </g>
</svg>